<?xml version="1.0" encoding="UTF-8"?>
<svg version="1.1" xmlns="http://www.w3.org/2000/svg" width="412" height="412">
<path d="M0 0 C1.62672511 -0.00913666 1.62672511 -0.00913666 3.28631335 -0.01845789 C6.88546842 -0.03497908 10.48426547 -0.03032757 14.08345032 -0.0255127 C16.67829757 -0.0328594 19.27314155 -0.04144737 21.86798096 -0.05117798 C28.16465818 -0.07214254 34.46124315 -0.07677797 40.75795116 -0.07499009 C45.88195812 -0.07367774 51.00593653 -0.07751065 56.12993813 -0.08491516 C57.61108694 -0.08701457 59.09223576 -0.08911217 60.57338458 -0.09120798 C61.67953182 -0.09277327 61.67953182 -0.09277327 62.80802546 -0.09437019 C76.72816169 -0.11323692 90.64824514 -0.11223355 104.56838886 -0.10540086 C117.26941542 -0.09983001 129.97023999 -0.12063761 142.67121937 -0.15376133 C155.74707217 -0.187595 168.82282848 -0.20265453 181.89872581 -0.1980443 C189.22596161 -0.1958091 196.55301084 -0.20090238 203.88020897 -0.22593689 C210.7758977 -0.2492985 217.67116155 -0.24625032 224.56685829 -0.22600937 C227.08660842 -0.22261521 229.60638722 -0.22761889 232.12609863 -0.24199295 C249.28598769 -0.33307001 264.52453838 0.99931527 279.94795227 9.14440918 C280.60239319 9.48238525 281.25683411 9.82036133 281.93110657 10.1685791 C288.13816516 13.49338101 293.41587602 17.60402367 298.57295227 22.39440918 C299.95933899 23.64351074 299.95933899 23.64351074 301.37373352 24.91784668 C315.93528337 38.65363782 327.21161433 58.62926371 327.953269 78.98330402 C327.97075873 80.9337642 327.97247566 82.88441253 327.96063232 84.83491516 C327.96871063 86.46375697 327.96871063 86.46375697 327.97695214 88.12550467 C327.99114986 91.72933682 327.98414812 95.3327974 327.977005 98.93664551 C327.98271287 101.53473707 327.98967874 104.13282612 327.99780273 106.73091125 C328.01492762 113.03494559 328.01584384 119.33887996 328.01058983 125.6429315 C328.00653467 130.77172194 328.0080076 135.90048303 328.01333809 141.02927208 C328.01408651 141.76156145 328.01483493 142.49385081 328.01560603 143.24833077 C328.01713765 144.7363884 328.018676 146.22444602 328.020221 147.71250363 C328.0339235 161.64212122 328.02852448 175.57168253 328.01703579 189.50129881 C328.0071083 202.21658252 328.02003968 214.93172061 328.04396998 227.64698187 C328.06841269 240.73412293 328.07795602 253.8211963 328.07131726 266.90835971 C328.06783617 274.24332488 328.06998313 281.57817819 328.08756828 288.91312599 C328.10390817 295.81369042 328.09902846 302.71397356 328.08026314 309.61453056 C328.07659039 312.13834202 328.07964707 314.66217421 328.09014893 317.18596649 C328.15250297 333.41762018 327.62739955 348.01181466 319.82295227 362.64440918 C319.48223694 363.30424805 319.14152161 363.96408691 318.79048157 364.6439209 C315.60654582 370.64691321 311.80031445 376.07790128 307.57295227 381.39440918 C306.42826477 382.94128418 306.42826477 382.94128418 305.26045227 384.51940918 C291.14578709 399.61881844 270.05023417 412.01217122 248.98405743 412.77472591 C247.03359725 412.79221564 245.08294892 412.79393257 243.13244629 412.78208923 C242.04655175 412.78747477 240.96065721 412.79286031 239.84185678 412.79840904 C236.23802463 412.81260677 232.63456405 412.80560503 229.03071594 412.79846191 C226.43262438 412.80416978 223.83453533 412.81113565 221.2364502 412.81925964 C214.93241586 412.83638453 208.62848149 412.83730075 202.32442995 412.83204674 C197.19563951 412.82799158 192.06687842 412.82946451 186.93808937 412.834795 C185.83965532 412.83591763 185.83965532 412.83591763 184.71903068 412.83706294 C183.23097305 412.83859456 181.74291543 412.84013291 180.25485782 412.84167791 C166.32524023 412.85538041 152.39567892 412.84998138 138.46606264 412.8384927 C125.75077893 412.82856521 113.03564084 412.84149659 100.32037958 412.86542689 C87.23323852 412.8898696 74.14616515 412.89941293 61.05900174 412.89277416 C53.72403657 412.88929308 46.38918326 412.89144004 39.05423546 412.90902519 C32.15367103 412.92536507 25.25338789 412.92048537 18.35283089 412.90172005 C15.82901943 412.8980473 13.30518724 412.90110398 10.78139496 412.91160583 C-5.45025873 412.97395988 -20.04445321 412.44885646 -34.67704773 404.64440918 C-35.3368866 404.30369385 -35.99672546 403.96297852 -36.67655945 403.61193848 C-42.67955176 400.42800273 -48.11053983 396.62177136 -53.42704773 392.39440918 C-54.97392273 391.24972168 -54.97392273 391.24972168 -56.55204773 390.08190918 C-71.65145699 375.967244 -84.04480977 354.87169107 -84.80736446 333.80551434 C-84.82485418 331.85505416 -84.82657112 329.90440583 -84.81472778 327.9539032 C-84.82011332 326.86800866 -84.82549886 325.78211412 -84.83104759 324.66331369 C-84.84524532 321.05948154 -84.83824358 317.45602096 -84.83110046 313.85217285 C-84.83680833 311.25408129 -84.8437742 308.65599223 -84.85189819 306.0579071 C-84.86902308 299.75387277 -84.8699393 293.4499384 -84.86468529 287.14588686 C-84.86063013 282.01709642 -84.86210306 276.88833533 -84.86743355 271.75954628 C-84.86818197 271.02725691 -84.86893039 270.29496755 -84.86970149 269.54048759 C-84.87123311 268.05242996 -84.87277146 266.56437234 -84.87431646 265.07631472 C-84.88801896 251.14669714 -84.88261993 237.21713583 -84.87113125 223.28751955 C-84.86120376 210.57223584 -84.87413514 197.85709775 -84.89806544 185.14183649 C-84.92250815 172.05469543 -84.93205148 158.96762205 -84.92541271 145.88045865 C-84.92193163 138.54549347 -84.92407859 131.21064016 -84.94166374 123.87569237 C-84.95800362 116.97512794 -84.95312392 110.0748448 -84.9343586 103.1742878 C-84.93068585 100.65047634 -84.93374253 98.12664415 -84.94424438 95.60285187 C-85.00659843 79.37119818 -84.48149501 64.7770037 -76.67704773 50.14440918 C-76.3363324 49.48457031 -75.99561707 48.82473145 -75.64457703 48.14489746 C-72.46064128 42.14190515 -68.65440991 36.71091708 -64.42704773 31.39440918 C-63.66392273 30.36315918 -62.90079773 29.33190918 -62.11454773 28.26940918 C-46.057559 11.09216542 -23.61523451 -0.12729143 0 0 Z " fill="#FEFEFE" transform="translate(84.42704772949219,-0.3944091796875)"/>
<path d="M0 0 C1.10214844 0.65162109 1.10214844 0.65162109 2.2265625 1.31640625 C9.51565936 6.10755419 13.77020738 13.67881936 16 22 C18.23556897 48.12496292 7.30540603 78.58191134 -9 99 C-9.66 99 -10.32 99 -11 99 C-11.27972656 98.06800781 -11.55945313 97.13601562 -11.84765625 96.17578125 C-14.65624582 87.13991586 -18.21715545 79.17356432 -23 71 C-26.11262904 74.69624698 -28.59913695 78.57465823 -31 82.75 C-38.32320924 95.20303103 -46.82578409 106.85158573 -56 118 C-57.29212106 119.64547662 -58.58377665 121.29131884 -59.875 122.9375 C-63.6094306 127.61104084 -67.58700529 132.0243118 -71.640625 136.421875 C-73.57870227 138.53964156 -75.45541499 140.68694934 -77.3125 142.875 C-80.57871519 146.60560597 -83.98204573 150.19528228 -87.4375 153.75 C-87.9631958 154.3054248 -88.4888916 154.86084961 -89.03051758 155.43310547 C-94.00996826 160.48516518 -99.60240838 163.35358785 -106.3125 165.5625 C-110.2757674 167.0800434 -110.2757674 167.0800434 -113 170 C-113 171.32 -113 172.64 -113 174 C-108.71 174 -104.42 174 -100 174 C-101.49968336 181.49841682 -105.71022523 186.64554054 -112 191 C-112.7321875 191.51046875 -113.464375 192.0209375 -114.21875 192.546875 C-117.53782163 194.28099669 -120.22045476 194.5783067 -123.9375 194.9375 C-129.41570082 195.63232421 -133.00611032 196.12022145 -137 200 C-137.95231597 202.12119128 -137.95231597 202.12119128 -138 204 C-130.65172843 207.54065858 -119.77429761 207.18437624 -111.99609375 204.7421875 C-111.33738281 204.49726563 -110.67867187 204.25234375 -110 204 C-109.12472656 203.69320312 -108.24945313 203.38640625 -107.34765625 203.0703125 C-88.3405534 195.8271327 -74.6656112 182.54885096 -62.23046875 166.80078125 C-59.60615937 163.50545756 -56.87562341 160.31490467 -54.125 157.125 C-53.61340332 156.52888916 -53.10180664 155.93277832 -52.57470703 155.31860352 C-50.16511973 152.51096668 -47.74843326 149.71009433 -45.31640625 146.921875 C-34.05386456 133.92325167 -23.75878919 120.04917617 -14.32421875 105.67260742 C-13.2642089 104.08197154 -12.13863523 102.53533488 -11 101 C-10.34 101 -9.68 101 -9 101 C-0.96049295 131.72240195 -8.02472823 162.57411234 -23.55859375 189.67724609 C-26.94641522 195.13655054 -31.15685659 199.8623138 -35.57568359 204.50244141 C-36.89415607 205.88871329 -38.17731789 207.30833896 -39.45703125 208.73046875 C-58.42831652 229.02313707 -86.52964724 240.11924184 -113.9765625 241.35546875 C-123.72026549 241.58036623 -132.83362673 241.20253614 -142.2578125 238.55859375 C-147.89718341 237.40983301 -151.36148599 239.60745655 -156.125 242.5 C-168.01844191 249.52669645 -180.77615579 255.92161814 -194 260 C-194.88945312 260.29648437 -195.77890625 260.59296875 -196.6953125 260.8984375 C-208.93486588 264.5336182 -223.5231306 265.19172282 -235 259 C-243.86711022 253.89092949 -249.25416693 245.76296202 -252 236 C-252.44279264 233.04850289 -252.5251015 230.16924468 -252.5 227.1875 C-252.49355469 226.36709229 -252.48710937 225.54668457 -252.48046875 224.70141602 C-251.89547628 204.51725152 -242.57252897 186.35595201 -233.1875 168.9375 C-232.71940918 168.0616626 -232.25131836 167.1858252 -231.76904297 166.28344727 C-231.10026123 165.07386353 -231.10026123 165.07386353 -230.41796875 163.83984375 C-230.02375732 163.12175537 -229.6295459 162.40366699 -229.22338867 161.66381836 C-228 160 -228 160 -225 159 C-224.63648438 160.01578125 -224.27296875 161.0315625 -223.8984375 162.078125 C-220.76512029 170.7026279 -217.32962188 178.89347393 -213 187 C-210.90382032 184.28408358 -209.04504022 181.52202205 -207.28515625 178.578125 C-200.83526913 167.90262369 -194.13983265 157.66542232 -186.4453125 147.84667969 C-185.00285198 146.00364398 -183.57817335 144.14797197 -182.15625 142.2890625 C-177.18746218 135.83137263 -172.04387878 129.65740104 -166.484375 123.6953125 C-164.50927752 121.55251806 -162.58334747 119.38623027 -160.671875 117.1875 C-142.32211513 96.18743861 -142.32211513 96.18743861 -129.01171875 92.04296875 C-126.12002143 91.04156384 -124.69117981 90.52150636 -123 88 C-123 86.68 -123 85.36 -123 84 C-127.29 84 -131.58 84 -136 84 C-134.36232293 75.81161467 -129.64215673 71.06930902 -123.02734375 66.2265625 C-117.61580638 62.95253025 -112.24718425 62.39706356 -106.05859375 61.66015625 C-102.86751061 60.97140395 -101.24139204 60.36195591 -99 58 C-99 56.68 -99 55.36 -99 54 C-108.81970799 50.21971364 -120.37322847 50.87424077 -130 55 C-130.85722656 55.36738281 -131.71445313 55.73476562 -132.59765625 56.11328125 C-138.05191185 58.77370233 -142.50532934 62.13312726 -146.90234375 66.28125 C-147.45867493 66.80081772 -148.0150061 67.32038544 -148.5881958 67.85569763 C-154.94166142 73.82564684 -161.13980805 79.95372822 -167.30371094 86.1184082 C-169.25697528 88.06946741 -171.21815254 90.01233836 -173.1796875 91.95507812 C-180.25445909 98.99866366 -186.83315123 106.13841234 -193 114 C-194.55925805 115.83609142 -196.12103933 117.67004964 -197.6875 119.5 C-207.58959253 131.36397358 -216.64694213 144.00347207 -225 157 C-233.31986553 144.5202017 -231.42847034 121.96608308 -228.75 107.875 C-228.20431677 105.57407764 -227.62357567 103.28104521 -227 101 C-226.73316406 100.00355469 -226.46632813 99.00710937 -226.19140625 97.98046875 C-217.53321508 69.23527408 -197.00304912 44.69230578 -171 30 C-161.73699302 25.05373413 -152.08359067 21.78349118 -142 19 C-141.113125 18.75121094 -140.22625 18.50242187 -139.3125 18.24609375 C-125.91488455 15.17580688 -110.69957077 16.07294769 -97.36669922 19.02026367 C-89.49137182 20.7359671 -85.2868994 18.25078248 -78.625 14.375 C-67.22502995 7.8988246 -55.56067338 1.90937385 -43 -2 C-41.56527344 -2.44859375 -41.56527344 -2.44859375 -40.1015625 -2.90625 C-26.90691383 -6.49572621 -11.87433698 -7.63929188 0 0 Z " fill="#FD784C" transform="translate(324,77)"/>
<path d="M0 0 C0.66 0 1.32 0 2 0 C3.66205613 1.98789087 5.2141716 3.98058671 6.75 6.0625 C7.66575611 7.27022222 8.58241498 8.47726049 9.5 9.68359375 C10.843116 11.46075348 12.17832687 13.24194869 13.5 15.03515625 C18.59551466 21.51601395 26.63527049 28.31763525 34 32 C33.67 32.99 33.34 33.98 33 35 C30.31780259 36.30405178 27.71170024 37.4313846 24.9375 38.5 C24.19822266 38.79519531 23.45894531 39.09039062 22.69726562 39.39453125 C20.4706667 40.27893712 18.23731585 41.14309822 16 42 C15.26007813 42.28464111 14.52015625 42.56928223 13.7578125 42.86254883 C6.58890236 45.59102685 -0.32314633 46.86758963 -8 46 C-10.625 44.6875 -10.625 44.6875 -12 42 C-13.90765146 26.58818423 -6.79082451 13.24675905 0 0 Z " fill="#FEFAFA" transform="translate(111,267)"/>
<path d="M0 0 C0.68747314 -0.02690918 1.37494629 -0.05381836 2.08325195 -0.08154297 C4.0390625 -0.06640625 4.0390625 -0.06640625 7.375 0.5625 C10.30660501 4.05194078 10.955621 7.16891636 10.7890625 11.7265625 C9.18842536 22.68941687 4.71037326 34.86844749 -0.625 44.5625 C-1.615 44.8925 -2.605 45.2225 -3.625 45.5625 C-4.05167969 44.91925781 -4.47835938 44.27601563 -4.91796875 43.61328125 C-13.25843689 31.55829533 -23.40849688 21.66603213 -35.625 13.5625 C-34.625 10.5625 -34.625 10.5625 -32.140625 9.09765625 C-21.57012553 4.33081618 -11.69443171 0.27187145 0 0 Z " fill="#FEFCFA" transform="translate(302.625,99.4375)"/>
<path d="M0 0 C0.73476563 0.43441406 1.46953125 0.86882812 2.2265625 1.31640625 C7.81508924 4.98976372 11.24692332 9.94114564 14 16 C14 16.99 14 17.98 14 19 C13.34 19 12.68 19 12 19 C11.5978125 18.03900391 11.5978125 18.03900391 11.1875 17.05859375 C7.35850218 8.6070887 2.65040959 3.3026063 -5.9375 -0.4375 C-21.37052366 -5.3828888 -40.52179872 -1.80838568 -54.66015625 5.26953125 C-55.76230469 5.84058594 -56.86445313 6.41164063 -58 7 C-59.28874406 7.63222035 -60.57918712 8.26098631 -61.87109375 8.88671875 C-63.22702033 9.54854201 -64.58248362 10.21131521 -65.9375 10.875 C-66.61208252 11.20508057 -67.28666504 11.53516113 -67.98168945 11.87524414 C-71.33392088 13.54874438 -74.54106024 15.29811426 -77.671875 17.359375 C-83.76406817 21.32252638 -87.92218918 23.64410717 -95.375 22.5 C-97.26250976 22.04952034 -99.14422676 21.56721308 -101 21 C-100.67 20.34 -100.34 19.68 -100 19 C-99.30777344 19.17660156 -98.61554688 19.35320312 -97.90234375 19.53515625 C-89.08301676 21.10381125 -84.21769599 18.28812179 -77.13671875 13.62109375 C-66.88530447 6.91239261 -54.71851005 1.52623859 -43 -2 C-42.04867187 -2.29648438 -41.09734375 -2.59296875 -40.1171875 -2.8984375 C-26.924516 -6.50245052 -11.8743194 -7.63928057 0 0 Z " fill="#FDB443" transform="translate(324,77)"/>
<path d="M0 0 C-2.50916764 2.50916764 -4.39304926 2.77371691 -7.8125 3.6875 C-15.150523 5.87759277 -21.43392321 9.10088526 -28 13 C-28.94101563 13.52722656 -29.88203125 14.05445312 -30.8515625 14.59765625 C-37.86510488 18.83862747 -43.50788831 24.12586706 -49.3125 29.875 C-50.0655542 30.61790283 -50.8186084 31.36080566 -51.59448242 32.1262207 C-58.6416792 39.28415134 -64.21114294 47.18850301 -69 56 C-69.66 56 -70.32 56 -71 56 C-62.43316041 33.15509442 -39.52276921 14.73826485 -18.0625 4.5625 C-12.0775111 1.9372497 -6.65692177 -0.4034498 0 0 Z " fill="#FD9D34" transform="translate(178,99)"/>
<path d="M0 0 C0.495 0.99 0.495 0.99 1 2 C-30.06165369 19.77602404 -30.06165369 19.77602404 -47 25 C-47.88945312 25.29648437 -48.77890625 25.59296875 -49.6953125 25.8984375 C-58.74726078 28.5868908 -67.65701027 28.28028969 -77 28 C-77 27.67 -77 27.34 -77 27 C-71.39 27 -65.78 27 -60 27 C-60 26.34 -60 25.68 -60 25 C-59.01 25.0928125 -59.01 25.0928125 -58 25.1875 C-54.75230545 24.98451909 -52.22569445 24.01314489 -49.21240234 22.8449707 C-47.08901715 22.03399783 -44.95415924 21.28952071 -42.80078125 20.5625 C-27.6645894 15.34364613 -13.83932265 7.98566321 0 0 Z " fill="#FE5A82" transform="translate(177,312)"/>
<path d="M0 0 C0.66 0 1.32 0 2 0 C1.94352295 0.57331055 1.8870459 1.14662109 1.82885742 1.73730469 C0.56114785 15.55326085 0.3092623 26.00755978 9.1875 37.4375 C13.97215156 42.47397533 20.24921811 45.52569131 27 47 C27 47.66 27 48.32 27 49 C17.43685397 47.48204031 10.91895931 44.03691923 5.125 36.125 C0.07232691 28.72905823 -1.47249242 22.10797936 -1.25 13.25 C-1.24484375 12.41339844 -1.2396875 11.57679688 -1.234375 10.71484375 C-1.18648993 6.96185158 -1.02043878 3.62981731 0 0 Z " fill="#FE657F" transform="translate(73,290)"/>
<path d="M0 0 C-1.14339844 0.55429688 -2.28679687 1.10859375 -3.46484375 1.6796875 C-4.95588463 2.41114152 -6.44676162 3.14292967 -7.9375 3.875 C-8.69224609 4.23980469 -9.44699219 4.60460937 -10.22460938 4.98046875 C-10.94326172 5.33496094 -11.66191406 5.68945312 -12.40234375 6.0546875 C-13.06741943 6.37937012 -13.73249512 6.70405273 -14.41772461 7.03857422 C-16.18049244 7.91752268 -16.18049244 7.91752268 -17 10 C-16.43152344 10.26167969 -15.86304688 10.52335937 -15.27734375 10.79296875 C-7.98900881 14.65591128 -1.96703041 20.82126548 3.875 26.5625 C4.42212646 27.09206299 4.96925293 27.62162598 5.53295898 28.16723633 C9.16728406 31.80716215 11.61854289 35.43841669 14 40 C13.01 40.495 13.01 40.495 12 41 C11.53851563 40.32195312 11.07703125 39.64390625 10.6015625 38.9453125 C3.20842919 28.39621714 -5.08377018 20.2498117 -15.7265625 13.10546875 C-18 11 -18 11 -18.3359375 8.23828125 C-18.22507812 7.49964844 -18.11421875 6.76101562 -18 6 C-15.56781941 4.80036357 -13.13029422 3.61515562 -10.6875 2.4375 C-9.99720703 2.09525391 -9.30691406 1.75300781 -8.59570312 1.40039062 C-3.33984375 -1.11328125 -3.33984375 -1.11328125 0 0 Z " fill="#FD982E" transform="translate(284,103)"/>
<path d="M0 0 C0 0.33 0 0.66 0 1 C-1.18335938 1.03738281 -2.36671875 1.07476562 -3.5859375 1.11328125 C-20.32456094 1.75646113 -33.40536876 5.24501084 -46 17 C-46.66 16.67 -47.32 16.34 -48 16 C-35.22652633 2.98998052 -18.1982559 -4.09133451 0 0 Z " fill="#FE922B" transform="translate(222,127)"/>
<path d="M0 0 C21.85428425 -1.03386352 21.85428425 -1.03386352 30 5 C31.0725 5.721875 32.145 6.44375 33.25 7.1875 C37.36842264 11.39952315 42 16.90372592 42 23 C41.34 23 40.68 23 40 23 C39.731875 22.35933594 39.46375 21.71867187 39.1875 21.05859375 C35.34931414 12.58680852 30.66475873 7.26784151 22 3.625 C14.86535512 1.2702653 7.44943642 1.18693692 0 1 C0 0.67 0 0.34 0 0 Z " fill="#FDA61D" transform="translate(296,73)"/>
<path d="M0 0 C-1.37844669 4.13534006 -4.24150275 5.48275905 -7.75 7.75 C-8.42522705 8.19102051 -9.1004541 8.63204102 -9.79614258 9.08642578 C-32.92004328 24 -32.92004328 24 -44 24 C-44 23.34 -44 22.68 -44 22 C-42.79085937 21.5875 -41.58171875 21.175 -40.3359375 20.75 C-26.79142029 16.01761178 -14.75900795 10.58653301 -3.671875 1.25 C-2 0 -2 0 0 0 Z " fill="#FE5870" transform="translate(278,290)"/>
<path d="M0 0 C-0.60473145 0.31227539 -1.20946289 0.62455078 -1.83251953 0.94628906 C-4.59856855 2.37724147 -7.3617917 3.81357029 -10.125 5.25 C-11.07632813 5.74113281 -12.02765625 6.23226562 -13.0078125 6.73828125 C-18.83151243 9.74722666 -18.83151243 9.74722666 -24.25 13.40625 C-27.88016265 15.51009426 -29.81989142 15.07757318 -33.875 14.25 C-35.02742187 14.02828125 -36.17984375 13.8065625 -37.3671875 13.578125 C-38.23601562 13.38734375 -39.10484375 13.1965625 -40 13 C-39.67 12.34 -39.34 11.68 -39 11 C-38.30777344 11.17660156 -37.61554688 11.35320312 -36.90234375 11.53515625 C-26.96656907 13.3023889 -21.53503163 9.4432191 -13.64013672 4.09326172 C-5.03219873 -1.64450939 -5.03219873 -1.64450939 0 0 Z " fill="#FDA530" transform="translate(263,85)"/>
<path d="M0 0 C-0.78503906 0.35191406 -1.57007813 0.70382813 -2.37890625 1.06640625 C-10.4612548 4.86461422 -17.1709751 8.64907902 -21 17 C-19.35 17.33 -17.7 17.66 -16 18 C-18 20 -18 20 -21.125 20.125 C-22.548125 20.063125 -22.548125 20.063125 -24 20 C-23.61458429 13.83334861 -19.445788 9.17350301 -15 5.22265625 C-6.02074845 -1.73286247 -6.02074845 -1.73286247 0 0 Z " fill="#FE8C3D" transform="translate(212,141)"/>
<path d="M0 0 C0.99 0 1.98 0 3 0 C3.495 1.485 3.495 1.485 4 3 C-2.72177429 10.78432281 -16.29614485 13.84921072 -26 16 C-27.32 16 -28.64 16 -30 16 C-30 15.34 -30 14.68 -30 14 C-29.18917969 13.84144531 -28.37835938 13.68289063 -27.54296875 13.51953125 C-19.77922595 11.88363201 -13.10596382 9.47377531 -6 6 C-4.6286695 5.42861229 -3.25415903 4.86472425 -1.875 4.3125 C1.10345659 3.31635791 1.10345659 3.31635791 2 1 C1.34 0.67 0.68 0.34 0 0 Z " fill="#FE627B" transform="translate(143,298)"/>
<path d="M0 0 C0 0.99 0 1.98 0 3 C-9.65844548 11.77706642 -21.83631912 18.45392003 -35 18 C-35 17.67 -35 17.34 -35 17 C-33.9275 16.773125 -32.855 16.54625 -31.75 16.3125 C-20.91638588 13.53757428 -8.08800329 8.08800329 0 0 Z " fill="#FE6D73" transform="translate(241,266)"/>
<path d="M0 0 C0.33 0 0.66 0 1 0 C1.64754825 11.4400191 -2.79300121 21.54070261 -7 32 C-7.66 32 -8.32 32 -9 32 C-8.58402437 30.60396057 -8.16715317 29.20818801 -7.75 27.8125 C-7.34394531 26.44931641 -7.34394531 26.44931641 -6.9296875 25.05859375 C-6.28605977 22.94111259 -5.62328477 20.82939229 -4.9453125 18.72265625 C-3.03924682 12.76098367 -1.59862241 7.22567304 -1 1 C-0.67 0.67 -0.34 0.34 0 0 Z " fill="#FE9C3B" transform="translate(314,105)"/>
<path d="M0 0 C3.2268251 3.12273396 6.22326745 6.37582039 9.1875 9.75 C13.14792361 14.18806264 17.36108809 18.17612625 21.8359375 22.08984375 C23.62869617 23.6722607 25.33443821 25.28608319 27 27 C18.39929577 25.64304434 11.28855808 16.52855892 5.875 10.1875 C5.4018335 9.63674805 4.92866699 9.08599609 4.44116211 8.51855469 C2.18700155 5.79344375 0.43264787 3.57367141 0 0 Z " fill="#FE5D67" transform="translate(115,269)"/>
<path d="M0 0 C-1.4264578 3.2586636 -3.16704162 5.4024854 -5.6953125 7.890625 C-6.76845703 8.95410156 -6.76845703 8.95410156 -7.86328125 10.0390625 C-8.60964844 10.76867187 -9.35601562 11.49828125 -10.125 12.25 C-10.87910156 12.99507812 -11.63320312 13.74015625 -12.41015625 14.5078125 C-14.26900772 16.3431342 -16.13237005 18.1736191 -18 20 C-18.66 19.34 -19.32 18.68 -20 18 C-17.04974274 14.99196428 -14.08850331 11.9949821 -11.125 9 C-10.28324219 8.14148438 -9.44148437 7.28296875 -8.57421875 6.3984375 C-7.76855469 5.58632812 -6.96289062 4.77421875 -6.1328125 3.9375 C-5.38918457 3.18339844 -4.64555664 2.42929688 -3.87939453 1.65234375 C-2 0 -2 0 0 0 Z " fill="#FE964D" transform="translate(171,147)"/>
<path d="M0 0 C0.33 0.66 0.66 1.32 1 2 C1.66 2 2.32 2 3 2 C1.23975951 7.13490272 -1.61924357 11.58349048 -4.4375 16.1875 C-4.92798828 17.00669922 -5.41847656 17.82589844 -5.92382812 18.66992188 C-6.40142578 19.45302734 -6.87902344 20.23613281 -7.37109375 21.04296875 C-7.80349365 21.75477295 -8.23589355 22.46657715 -8.68139648 23.19995117 C-10 25 -10 25 -13 27 C-11.15981259 21.77946833 -8.23099891 17.34593119 -5.27734375 12.703125 C-2.69692527 8.53017102 -1.13608567 4.77896907 0 0 Z " fill="#FE8D42" transform="translate(298,143)"/>
<path d="M0 0 C0.99 0.33 1.98 0.66 3 1 C-1.95 5.95 -6.9 10.9 -12 16 C-12.33 15.01 -12.66 14.02 -13 13 C-8.71 8.71 -4.42 4.42 0 0 Z " fill="#FE7F42" transform="translate(181,176)"/>
<path d="M0 0 C1 3 1 3 0.36669922 4.82177734 C0.01623535 5.4864502 -0.33422852 6.15112305 -0.6953125 6.8359375 C-1.08203125 7.57070313 -1.46875 8.30546875 -1.8671875 9.0625 C-2.28226562 9.825625 -2.69734375 10.58875 -3.125 11.375 C-3.516875 12.13039063 -3.90875 12.88578125 -4.3125 13.6640625 C-6.72655518 18.1766101 -9.18030749 21.58810384 -13 25 C-12.35018415 21.00411746 -10.34379677 18.1264647 -8.1875 14.75 C-5.15860249 9.95041441 -2.41731662 5.13679782 0 0 Z " fill="#FE6663" transform="translate(307,249)"/>
<path d="M0 0 C0 0.33 0 0.66 0 1 C-0.84594727 1.029729 -0.84594727 1.029729 -1.70898438 1.06005859 C-4.30639574 1.15631811 -6.90311103 1.26558052 -9.5 1.375 C-10.8303125 1.42140625 -10.8303125 1.42140625 -12.1875 1.46875 C-17.74530794 1.71394741 -22.63085103 2.57456222 -28 4 C-31 3.625 -31 3.625 -33 3 C-33 2.67 -33 2.34 -33 2 C-22.21959464 -0.88852967 -11.0557919 -0.1901883 0 0 Z " fill="#FDC67D" transform="translate(215,94)"/>
<path d="M0 0 C2.61525625 0.37926876 3.77967536 0.7696606 5.6328125 2.70703125 C6.37144531 3.74923828 6.37144531 3.74923828 7.125 4.8125 C7.87136719 5.84310547 7.87136719 5.84310547 8.6328125 6.89453125 C10.71669454 10.1037096 12 12.11660812 12 16 C11.34 16 10.68 16 10 16 C9.69707031 15.34773438 9.39414062 14.69546875 9.08203125 14.0234375 C6.53995294 8.72027105 3.98619986 4.32787414 0 0 Z " fill="#FDA731" transform="translate(326,80)"/>
<path d="M0 0 C-1.69171538 1.12781025 -3.38545543 2.25263933 -5.0859375 3.3671875 C-9.21003871 6.08374563 -13.21024706 8.82149753 -17 12 C-17.66 11.67 -18.32 11.34 -19 11 C-17.60886005 9.72403068 -16.21185587 8.45445352 -14.8125 7.1875 C-14.03519531 6.47980469 -13.25789062 5.77210938 -12.45703125 5.04296875 C-8.35321418 1.63073294 -5.44521816 -0.46673299 0 0 Z " fill="#FE963D" transform="translate(193,132)"/>
<path d="M0 0 C0.33 0.99 0.66 1.98 1 3 C-0.109375 5.0859375 -0.109375 5.0859375 -1.75 7.375 C-3.53802257 9.91217091 -5.20769322 12.36346313 -6.75 15.0625 C-7.36875 16.0215625 -7.36875 16.0215625 -8 17 C-8.66 17 -9.32 17 -10 17 C-8.57394582 13.07297642 -6.70550338 9.75380481 -4.4375 6.25 C-3.81746094 5.28578125 -3.19742188 4.3215625 -2.55859375 3.328125 C-1 1 -1 1 0 0 Z " fill="#FE9542" transform="translate(117,138)"/>
<path d="M0 0 C0.66 0.99 1.32 1.98 2 3 C1.3203125 5.69921875 1.3203125 5.69921875 0.125 8.6875 C-0.45894531 10.17830078 -0.45894531 10.17830078 -1.0546875 11.69921875 C-1.52261719 12.83810547 -1.52261719 12.83810547 -2 14 C-2.66 14 -3.32 14 -4 14 C-4.33 14.99 -4.66 15.98 -5 17 C-4.46246904 10.81839396 -2.45417612 5.673142 0 0 Z " fill="#FE787B" transform="translate(80,268)"/>
<path d="M0 0 C5 1.66666667 10 3.33333333 15 5 C15 5.66 15 6.32 15 7 C9.08689107 6.0013416 4.73024463 4.75993804 0 1 C0 0.67 0 0.34 0 0 Z " fill="#FE537F" transform="translate(85,332)"/>
<path d="M0 0 C-1.93108963 1.03290841 -3.870118 2.05098672 -5.8125 3.0625 C-6.89144531 3.63097656 -7.97039062 4.19945312 -9.08203125 4.78515625 C-12 6 -12 6 -15 5 C-13.73168307 4.18357746 -12.46024069 3.37200895 -11.1875 2.5625 C-10.47980469 2.11003906 -9.77210938 1.65757812 -9.04296875 1.19140625 C-5.62842947 -0.79986426 -3.71173295 -1.15191712 0 0 Z " fill="#FE9F52" transform="translate(212,141)"/>
<path d="M0 0 C-4.62204909 2.50360992 -9.69950655 5 -15 5 C-15 4.34 -15 3.68 -15 3 C-9.89665983 1.094753 -5.53657294 -0.42589023 0 0 Z " fill="#FE6480" transform="translate(249,309)"/>
<path d="M0 0 C0.66 0 1.32 0 2 0 C2.66 2.64 3.32 5.28 4 8 C3.38125 7.649375 2.7625 7.29875 2.125 6.9375 C1.073125 6.4734375 1.073125 6.4734375 0 6 C-0.99 6.495 -0.99 6.495 -2 7 C-1.125 1.125 -1.125 1.125 0 0 Z " fill="#FE7864" transform="translate(97,236)"/>
<path d="M0 0 C0.66 0 1.32 0 2 0 C2.33 0.99 2.66 1.98 3 3 C3.66 3.33 4.32 3.66 5 4 C4.67 5.65 4.34 7.3 4 9 C3.34 9 2.68 9 2 9 C1.34 6.03 0.68 3.06 0 0 Z " fill="#FE8949" transform="translate(311,167)"/>
<path d="M0 0 C2.31 1.98 4.62 3.96 7 6 C6.01 6.33 5.02 6.66 4 7 C2 5.1875 2 5.1875 0 3 C0 2.01 0 1.02 0 0 Z " fill="#FE6B75" transform="translate(125,281)"/>
<path d="M0 0 C0.33 0.99 0.66 1.98 1 3 C0.525625 3.45375 0.05125 3.9075 -0.4375 4.375 C-2.09027808 5.93258204 -2.09027808 5.93258204 -3 8 C-3.66 8 -4.32 8 -5 8 C-3.375 2.25 -3.375 2.25 0 0 Z " fill="#FE7170" transform="translate(112,264)"/>
<path d="M0 0 C2.6855594 2.6855594 3.06049974 5.37621328 4 9 C3.01 8.67 2.02 8.34 1 8 C0.67 5.36 0.34 2.72 0 0 Z " fill="#FE8074" transform="translate(101,245)"/>
<path d="M0 0 C4.875 4.625 4.875 4.625 6 8 C5.01 8.495 5.01 8.495 4 9 C0 3.375 0 3.375 0 0 Z " fill="#FE9946" transform="translate(292,135)"/>
<path d="M0 0 C1.125 1.625 1.125 1.625 2 4 C1.125 7.25 1.125 7.25 0 10 C-0.33 10 -0.66 10 -1 10 C-1.125 3.375 -1.125 3.375 0 0 Z " fill="#FE9D3A" transform="translate(312,114)"/>
</svg>
